<?xml version="1.0" encoding="utf-8"?>
<!-- Generator: Adobe Illustrator 27.9.0, SVG Export Plug-In . SVG Version: 6.00 Build 0)  -->
<svg version="1.1" id="Layer_1" xmlns="http://www.w3.org/2000/svg" xmlns:xlink="http://www.w3.org/1999/xlink" x="0px" y="0px"
	 viewBox="0 0 727.7 500" style="enable-background:new 0 0 727.7 500;" xml:space="preserve">
<style type="text/css">
	.st0{fill:#EDF0EF;}
	.st1{fill:#82C3EC;}
	.st2{fill:#C0C0C0;}
	.st3{fill:#357FA5;}
	.st4{fill:#3097D2;}
	.st5{fill:#1F5B7B;}
	.st6{fill:#CDCDCF;}
	.st7{fill:#E9BC40;}
	.st8{fill:#4A5464;}
	.st9{fill:#B3B7CC;}
	.st10{fill:#236187;}
	.st11{fill:#C89E32;}
	.st12{fill:#F9D53B;}
	.st13{fill:#CDCDCE;}
	.st14{fill:#BF8756;}
	.st15{fill:#114861;}
	.st16{fill:#F6D179;}
	.st17{fill:#F5D17D;}
	.st18{fill:#46566A;}
	.st19{fill:#CBCC79;}
	.st20{fill:#685C20;}
	.st21{fill:#C4BC7F;}
	.st22{fill:#65400B;}
	.st23{fill:#4E441E;}
	.st24{fill:#FBD639;}
	.st25{fill:#3987B2;}
	.st26{fill:#F8CE73;}
	.st27{fill:#F3C360;}
	.st28{fill:#7C98AC;}
	.st29{fill:#F4E196;}
	.st30{fill:#F3DE84;}
	.st31{fill:#F5E38E;}
	.st32{fill:#F9D539;}
	.st33{fill:#3C645F;}
	.st34{fill:#58856E;}
	.st35{fill:#CFD46F;}
	.st36{fill:#226188;}
	.st37{fill:#514626;}
	.st38{fill:#4E4620;}
	.st39{fill:#3D3D3D;}
	.st40{fill:#FBD176;}
	.st41{fill:#2B2C2B;}
	.st42{fill:#272626;}
	.st43{fill:#575655;}
	.st44{fill:#BB8557;}
	.st45{fill:#545454;}
	.st46{fill:#E53D2A;}
	.st47{fill:#393A3A;}
	.st48{fill:#F6D07A;}
	.st49{fill:#3A8AA9;}
	.st50{fill:#909A8F;}
	.st51{fill:#4788AD;}
	.st52{fill:#EAEEEA;}
	.st53{fill:#B2CAB5;}
	.st54{fill:#B2CAA6;}
	.st55{fill:#B3C5B7;}
	.st56{fill:#5A9491;}
	.st57{fill:#CBCF7B;}
	.st58{fill:#EBEFE5;}
	.st59{fill:#DBDCA2;}
	.st60{fill:#958E8A;}
	.st61{fill:#E3D459;}
	.st62{fill:#E6D554;}
	.st63{fill:#C6CC8D;}
	.st64{fill:#948E8B;}
	.st65{fill:#676867;}
	.st66{fill:#29292F;}
	.st67{fill:#B3B7CB;}
</style>
<g>
	<path class="st0" d="M256.4,77.2c2.5,1.8,4.8,0.8,7-0.6c13.5-7.9,26.8-16,40.4-23.8c12.2-7,24.6-13.5,36.4-21.1
		c3.3-2.1,6-1.6,9.1,0.2c11.1,6.6,22.3,13,33.4,19.5c16.1,9.4,32,19.1,48.3,28c18.2,10,35.7,21.1,53.9,30.9
		c9.7,5.2,19.1,10.8,28.6,16.3c10.1,5.9,20,12.4,30.3,18c11.5,6.2,22.6,12.9,33.9,19.3c17.1,9.7,34,19.8,51,29.7
		c8.9,5.1,18,9.9,26.9,15.1c9.5,5.5,18.8,11.2,28.3,16.8c10.4,6.1,20.8,12.1,31.3,17.9c2.5,1.4,3.7,2.9,3.3,5.8
		c-0.4,2.6,0.7,5.4-0.6,8c-1.6-1.9-0.7-4.1-1-6.2c-0.1-1.1,0.5-2.6-0.5-3.2c-1.1-0.8-1.9,0.8-2.9,1.2c-2.7,1-4.6,3.9-7.9,3
		c-0.2-0.2-0.5-0.5-0.6-0.8c-1.1-3.2-1.3-3.4-4.3-2c-2,0.9-3.8,1.3-5.7,0.2c-0.6-0.3-1-0.9-1.2-1.6c0-1.3,0.9-1.6,1.9-1.8
		c1,0.2,2-0.2,3-0.4c2.6-0.5,2.2-1.7,0.7-3.1c-12.5-6.8-24.9-13.9-37.2-21.2c-8.1-4.8-16.4-9.2-24.4-14.1c-1.1-0.7-2.5-0.4-3.5-1.2
		c-0.2-0.2-0.4-0.5-0.6-0.8c-5.2-3.9-11.1-6.6-16.6-10c-10.8-6.5-21.8-12.5-32.7-18.9c-4.8-2.9-10.3-5-14.9-8
		c-5.5-3.6-11.2-6.8-16.9-10.1c-16-9.2-31.9-18.8-48.1-27.7c-8.8-4.8-17.3-10.3-26.1-15.4c-12.3-7.1-24.6-14.2-36.8-21.3
		c-1.5-0.8-3.3-1-4.6-2.3c-0.3-0.2-0.6-0.4-0.8-0.6c-4-3.1-8.6-5.1-12.9-7.6c-14.8-8.6-29.8-17-44.5-25.8c-3.7-2.2-6.5-1.9-10,0.2
		c-16.5,9.6-32.9,19.3-49.5,28.7c-2.6,1.4-4.9,3.3-7.5,4.6c-0.3,0.2-0.6,0.3-0.8,0.5c-17.3,9.4-34.3,19.4-51.2,29.4
		c-4.6,2.7-9.4,4.9-13.6,8.2c2.2,2.6,5.4,3.8,8.3,5.4c18.1,10.5,36.2,21.1,54.5,31.4c0.5,0.3,1,0.6,1.3,1.1c0.2,0.5,0.1,1-0.2,1.5
		c-2,1.1-3.6-0.1-5-1.1c-4.7-3.6-9.1-4.1-14.1-0.2c-2.4,1.9-5.3,4-8.9,3.6c-9.4,0-18.8-0.8-28.1,0.9c-0.4,0-0.7-0.1-1.1-0.2
		c-2.2-1.6-4.3-0.6-6.4,0.2c-2.9,0.1-5.5,1.7-8.5,1.6c-2.1-0.1-3.8-0.6-3.9-3.1c-0.2-1.4,0.4-3.1-1-4.2c-1.4-2.1-2.3-4.3-3.2-6.6
		c-1.4-4.1-3.3-7.9-8.3-8.5c1-3.5,1-3.5-1.8-7.7c-1.2-1.8-2.4-3.6-3.8-5.2c-2.8-3.1-5.3-6.4-5.2-11c0-1.9-1.9-3.3-2-5.3
		c1.3-3.5,3.1-6.7,5.1-9.9c0.8-1.4,1.9-1.8,3.4-1.4c7.3,2.6,12,0.8,17-6.4c2-2.8,3.4-5.8,4.4-9.1c0.2-0.3,0.4-0.6,0.8-0.8
		c1.6-0.7,3.3-0.5,4.9-0.5c2.9-0.2,5.8,0.8,8.8,0.1c6.6-1.6,9-7.3,5.3-13C257.3,79.9,255.7,79.1,256.4,77.2z"/>
	<path class="st0" d="M10.3,223.2c5.7-4.8,12.5-7.7,18.8-11.4c12.5-7.4,25.2-14.6,37.7-22c6.7-3.9,13.6-7.6,20.4-11.5
		c8.4-4.8,16.8-9.7,25.2-14.5c7.8-4.5,15.6-9.1,23.4-13.6c4.8-2.8,9.6-5.5,14.4-8.2c1.4,1.5,0.8,3.2,0.7,4.9
		c-0.5,6.2-1.7,12.4-1.1,18.7c-2.2,5.3-4,10.7-5.6,16.2c-1.2,4.2-2.5,8.4-4.2,12.5c-0.9,1.6-1.2,3.4-1.5,5.3
		c-0.1,0.3-0.2,0.6-0.4,0.9c-1.2,1.6-0.4,3.5-1.1,5.2c-1.1,3.7-2.1,7.6-4.1,10.9c-1.4,1.5-0.7,3.5-1.2,5.2c-1.4,4.3-2.4,8.6-3.4,13
		c-0.4,1.7,0.3,3.1,1.1,4.4c0.9,1.4,2.1,2.6,2.9,4.1c4,12,9.8,23.1,15.9,34.1c1.7,3,1.5,4-1.6,5.8c-5.8,3.2-11.5,6.8-18.2,8.1
		c-4.3-1.4-7.9-3.9-11.7-6.1c-9.4-5.5-18.8-11-28.3-16.4c-10.4-6-20.9-12-31.3-18c-9.7-5.6-19.4-11.3-29.2-16.9
		c-4.9-2.8-9.5-6.2-14.8-8.4C12,225,11.1,224.1,10.3,223.2z"/>
	<path class="st1" d="M243,369.2c0,4.4,0,8.8-0.1,13.1c0,1.1,0.4,2.3-0.6,3.2c-1.2-1-0.9-2.5-0.9-3.8c-0.1-5.7,0-11.4,0-17
		c0-4.5,0-4.5-4.1-2.3c-10.6,6-21.1,12.1-31.6,18.2c-8,4.6-15.9,9.2-23.9,13.8c-2,1.2-3.7,1.2-5.7,0c-11.4-6.8-23-13.3-34.5-19.9
		c-7.8-4.5-15.6-8.9-23.3-13.5c-1.1-0.6-2.2-1.2-3-2.2c4-3.8,9.2-5.8,13.8-8.5c12.7-7.5,25.5-14.8,38.2-22.2
		c0.7-0.4,1.3-0.9,1.9-1.4c4.5-4.7,11.4-7,15.4-2.9c0.6,0.6,1.4,0.7,2.2,0.9c6.8,3.2,13,7.2,19.5,10.9c7.7,4.5,15.6,8.7,23.2,13.3
		c1,0.6,1.9,1.2,2.8,2c2.9,2.3,6,4.2,9.5,5.6c0.3,0.2,0.6,0.5,0.8,0.7C244.7,361.2,244.4,365.1,243,369.2z"/>
	<path class="st2" d="M705.5,251.9c3.5-0.6,6.1-2.9,8.9-4.7c0.9-0.5,1.7-1.5,2.7-1.2c1.2,0.4,0.6,1.8,0.7,2.7c0.1,2.8,0,5.7,0.1,8.5
		c-17.1,9.9-34.1,19.7-51.2,29.6c-14.5,8.4-29.1,16.6-43.6,25c-29.2,16.8-58.3,33.7-87.4,50.5c-21.5,12.4-42.9,24.9-64.4,37.4
		c-19.4,11.2-38.8,22.5-58.3,33.7c-9.2,5.3-18.4,10.6-27.7,15.9c-0.5,0.3-1.1,1-1.8,0.3c-1.5-4-1-8,0.2-11.9c4.5-3.6,9.6-6,14.5-8.9
		c14.6-8.4,29.1-16.8,43.7-25.2c12.9-7.4,25.9-14.7,38.7-22.3s25.8-14.9,38.6-22.4c10.9-6.3,21.8-12.6,32.8-18.9
		c14-8,27.9-16.2,41.9-24.2c13.1-7.5,26.3-14.9,39.3-22.6c12.4-7.3,25-14.4,37.5-21.7c11.2-6.6,22.5-12.9,33.7-19.4
		C704.6,252,705.1,251.9,705.5,251.9z"/>
	<path class="st3" d="M149.1,165.6c-0.7-1.3-0.9-2.6-0.8-4.2c0.7-6.5,1.2-13,1.7-19.5c1.1-5.6,1.8-11.4,3.7-16.9
		c3.1-8.5,8.9-13.4,18.1-13.9c0.8,0,1.8,0,2.3-0.5c4-3.4,8.3-2.9,12.8-1.3c0.7,0.3,1.6,0.1,2.3,0.4c6.1,3.4,12.3,6.5,18.1,10.4
		c0.7,0.5,1.1,1.1,1.4,1.9c1.4,1.8,2.8,3.7,2.7,6c-0.1,3.5,1.5,5.9,3.7,8.3c3.5,4.1,6.6,8.5,9.2,13.5c-1.3,0.3-2.3,0.5-3.4,0.7
		c-0.2,0.4-0.6,0.7-1,0.8c-10.2,2-14.9,14.7-12.2,22.9c1.1,3.3,2,6.8,3.1,10.1c1.5,4.7-0.4,8-5.2,9.2c-2.6-1.3-5.2-1.2-7.8-0.4
		c-4.1-2.6-9-3-13.4-4.6c-10.4-3.8-20.5-7.9-29-15.2C152.9,171.2,150.5,168.9,149.1,165.6z"/>
	<path class="st4" d="M115.3,358.8c5.1,1.5,9.2,4.8,13.6,7.4c16.2,9.1,32.2,18.5,48.2,27.8c1.2,0.7,2.1,0.9,3.4,0.1
		c16-9.4,32.1-18.7,48.1-28c3.7-2.2,7.5-4.2,11.2-6.4c2.1-1.3,2.4-0.4,2.4,1.6c0,8,0,16.1,0,24.1c-11.7,6.9-23.5,13.7-35.2,20.6
		c-8.3,4.9-16.7,9.7-25,14.6c-2.1,1.3-3.8,1.5-6.2,0.1c-19.2-11.2-38.4-22.3-57.8-33.4c-2.1-1.2-3-2.6-2.9-5.1
		C115.4,374.5,115.3,366.7,115.3,358.8z"/>
	<path class="st5" d="M128.5,290.8c6.1-2.2,11.9-5,17.6-8.1c2.5-1.4,2.6-2.7,1.3-5.1c-6-10.6-11.7-21.2-15.3-32.9
		c-0.1-0.3-0.2-0.7-0.2-1c1.3-0.5,2.2,0.4,3,1c4.2,2.9,8.5,5.8,13.2,8c0.8,0.4,1.7,0.8,1.6,1.9c-0.3,0.4-0.7,0.6-1,0.9
		c-1.1,1.9,3.1,2.5,1.2,4.4c-1.7,1.8-0.7,3.1,0.7,4.2c3.8,3,6.9,6.8,11.5,8.8c2.6,1.1,5.2,2.1,8,2.7c4.1,0.8,8.4,1.5,11.6,4.8
		c1.1,2.4,1.4,5,1.5,7.6c0.3,4.5-1.7,7.8-5.2,10.4c-4.8,3.5-9.8,6.4-15.5,8.3c-1.5,0.5-2.9,1.1-4.5,1.6c-4.4,1-8.6,3.1-13.2,3.3
		c-10.2,2.6-20.3,5.2-30.5,7.7c-6.8,1.7-13.6,3.3-20.2,5.6c-0.8,0.3-1.5,0.5-2.3,0.2c-0.4-0.3-0.5-0.7-0.4-1.2
		c2.1-7,0.8-10.2-5.6-14c-0.4-0.3-0.6-0.6-0.4-1.1c0.3-1.8,1.9-2,3.3-2.5c9.2-3.5,18.3-7,27.5-10.5
		C119.6,293.1,124,291.8,128.5,290.8z"/>
	<path class="st6" d="M384.2,438.1c-1.2,3.8-0.4,7.7-0.7,11.6c-9.9-5.1-19.5-10.9-29.2-16.5c-13.4-7.8-26.9-15.4-40.3-23.2
		c-10.4-6-20.8-12.3-31.2-18.3c-10.7-6.2-21.6-12.3-32.3-18.5c-2.4-1.4-4.9-2.7-7.4-4.1c0-2.2-0.2-4.5,0-6.7
		c0.2-2.1-0.3-3.9-1.5-5.6c1.9-1.1,3.3,0.4,4.7,1.1c7.2,3.9,14.1,8.2,21.2,12.2c9.7,5.5,19.2,11.2,28.8,16.7
		c10.3,5.9,20.7,11.8,31,17.8c17.1,9.8,34.1,19.9,51.3,29.6C380.5,435.4,382.5,436.5,384.2,438.1z"/>
	<path class="st3" d="M244.3,94.9c-1.8-0.5-3.5,0-5.3,0c-1.5,1.2-3.2,1.1-4.9,0.8c-9.4-1.9-18.7-4.3-27.5-8.5
		c-3.5-1.7-6.8-3.5-10.2-5.4c-1.8-1-3.6-2-4.3-4.2c0-0.8-0.7-1.9,0.4-2.4c0.8-0.4,1.5,0.2,2.1,0.7c2,1.7,4.4,2.8,6.8,3.8
		c1.1,0.4,2.4,0.7,3-0.6c0.7-1.5-0.7-2.1-1.7-2.4c-3.6-1.2-6.5-3.4-9.2-6c-0.3-0.3-0.5-0.8-0.7-1.2c6.2-13.3,21.9-21.2,34.4-17.1
		c5.9,1.9,10.2,5.8,12.9,11.3c1.1,2.1,1.9,4.4,2.8,6.6c1.3,1.8,2,3.8,2.1,6C245.5,82.5,245.4,88.8,244.3,94.9z"/>
	<path class="st6" d="M128.5,290.8c-4,2-8.2,3.7-12.5,5.2c-4-3.4-8.8-5.4-13.2-8.1c-9.2-5.6-18.6-10.8-27.9-16.2
		c-17.8-10.2-35.6-20.5-53.4-30.7c-3-1.7-6-3.6-9.1-5.2c-1.7-0.9-2.2-2-2.1-3.8c0.1-2.9,0-5.9,0-8.9c5,1.9,9.3,5.1,13.9,7.6
		c9.4,5.1,18.7,10.5,27.9,16c10.2,6,20.5,11.9,30.7,17.9c13.2,7.8,26.5,15.2,39.7,22.8C124.5,288.6,126.5,289.7,128.5,290.8z"/>
	<path class="st7" d="M320.9,424c9.7,5.4,19.2,11.3,29,16.5c3,1.6,6.1,3.4,8.8,5.6c-2.5,3.2-6.4,4.4-9.8,6.4c-1.6,0.8-2.8,0-4.2-0.7
		c-16.3-9.7-32.8-19-49.2-28.5c-9.4-5.5-18.8-11-28.3-16.2c-4-2.2-8.2-4.2-11.6-7.5c1.4-2.3,4-2.7,5.9-4.2c1.1-0.9,2.8-0.9,3.3-2.5
		c3.3-0.2,5.3,2.5,8,3.7c0.7,0.8,2.2,1.2,1.5,2.8c-1.2,1.1-2.9,1.1-4.4,1.7c-0.9,0.3-1.7,0.8-1.8,1.8c-0.2,1.2,0.7,1.9,1.7,2.3
		c3.1,1.4,6,0.8,8.5-1.4c0.9-1.2,1.5-2.9,3.5-1.9c7.6,3.9,15.1,8.2,22.2,12.9c-2.1,3-2.1,3,1,4.9c2.3,1.4,4.8,2.5,7,4.1
		C315,425.6,317.9,426,320.9,424z"/>
	<path class="st8" d="M192.4,77.1c2.9,4,7.5,5.8,11.6,8c6.8,3.6,14.2,6,21.6,7.9c4.3,1.1,8.8,2.4,13.4,1.9c-0.1,0.3-0.3,0.6-0.4,0.9
		c-1.7,2.3-3.8,4.2-5.2,6.7c-0.5,0.8-1.3,1.3-2.3,0.9c-1.1-0.5-0.8-1.5-0.7-2.4c0.1-0.3,0.2-0.7,0.2-1c0.1-0.7,0.7-1.7-0.2-2.1
		c-0.8-0.4-1.5,0.4-2.1,0.9c-4,3.2-8,6.4-11.9,9.7c-0.9,0.7-1.8,1.4-2.7,2c-2.6,1.7-5,4.1-8.6,3.3c-5-1.2-9.4-3.4-13-7.1
		c-0.6-0.6-0.7-1.4-0.6-2.2c0.2-0.9,0.1-1.9,0.6-2.6c3.5-5.3,2.6-10.8,1-16.3c-0.8-2.7-1.7-5.4-1.5-8.3
		C191.9,76.8,192.2,76.8,192.4,77.1z"/>
	<path class="st9" d="M266.1,438.7c5.2,2.8,11,4.1,16.5,6.1c9.4,3.4,18.8,6.5,28.5,9.8c-1.3,2.3-3.4,2.9-5.2,3.9
		c-5.8,3.4-11.5,6.8-17.3,10.1c-1.6,0.9-2.7,1.5-4.6-0.3c-6.9-6.9-14.1-13.5-21.2-20.2c-1.3-1.3-2.7-2.4-4.3-3.1
		C260,441.5,263.9,441.1,266.1,438.7z"/>
	<path class="st10" d="M80.8,331.5c-4.9,3.5-8.3,8.3-10.7,13.8c-1,2.2-1.6,4.8-4.5,5.5c-2.2-6.7-2.4-13.5-0.2-20.2
		c1-3.1,2.4-6.1,2.7-9.4c0.3-3.9-1.5-7.2-2.6-10.8c5.3-1.9,10.7-1.4,15.9,0.4c2.3,1.6,2.4,4,1.3,5.9c-2.2,3.9-3.1,7.8-1.6,12.2
		C81.2,329.6,80.8,330.6,80.8,331.5z"/>
	<path class="st11" d="M255.9,399.4c15.4,8.9,30.8,17.9,46.3,26.7c8.6,4.9,17,10.2,25.8,14.8c6.1,3.1,11.8,6.9,17.7,10.5
		c1.1,0.6,1.9,1.1,3.1,0.5c2.4,0.2,4-1.8,6-2.5c1.4-0.5,2.4-2.2,4.2-1.5c0.5,1.6,0.2,2.8-1.5,3.6c-2,1-3.9,2.3-5.8,3.5
		c-2.2,1.4-4.3,0.7-6.3-0.5c-11.7-6.8-23.5-13.6-35.2-20.4c-12.8-7.4-25.7-14.8-38.5-22.2c-4.7-2.7-9.3-5.6-14.1-8.1
		c-1.9-1-2.7-2.3-2.2-4.3C255.6,398.9,255.8,399,255.9,399.4z"/>
	<path class="st12" d="M244.3,94.9c-0.3-0.8-0.9-1.6-0.8-2.5c1-7.4,1-14.7-0.5-22.1c3.8,0.7,6.9,2.6,9.9,4.9c1.1,0.8,2,1.9,3.4,2
		c-0.1,1.2,0.9,1.8,1.6,2.4c2.8,2.6,3.3,6,2.3,9.3c-0.9,3.2-3.7,5-7,5.9C250.4,95.7,247.3,95.1,244.3,94.9z"/>
	<path class="st13" d="M144.6,311.8c4.2-1.7,8.6-2.9,13-4c2.8-0.1,4.8,1.8,7,3.1c6.7,4,13.6,7.7,20.3,11.8c1,0.6,2.8,0.8,2.1,2.8
		c-1.3,0.1-2.3-0.3-3.4-1.2c-2.8-2.3-6.5-2.3-9.3,0c-1.6,1.3-3.7,1.1-5.1,2.5c-2.7-2.1-5.7-3.8-8.7-5.5
		C155.1,318.2,149.9,314.9,144.6,311.8z"/>
	<path class="st14" d="M266.1,438.7c-0.5,2.1-2.4,2.8-4,3.7c-1.3,0.7-2.3,1.7-3.5,2.6c-6.9-3.9-13.9-7.7-20.8-11.6
		c-2-1.2-5.1-2-3.4-5.5c1.4-3,5.5-4.2,8.4-2.6C250.6,429.8,258.4,434.3,266.1,438.7z"/>
	<path class="st15" d="M65.3,310.3c2.7,2,3,5,3.6,7.9c0.7,3.8-0.6,7.4-2,10.8c-2.2,5.4-2.7,10.9-1.5,16.6c0.3,1.6,0.1,3.4,0.2,5.1
		c-3.4,0.1-4.7-2.4-5.9-4.8c-1.8-3.3-2-7-1.5-10.6c1-6.7,2.2-13.4,4.2-19.9C62.9,313.6,63.6,311.6,65.3,310.3z"/>
	<path class="st16" d="M80.8,331.5c-0.3-1.3-0.6-2.6-1-3.9c-1-3.3-0.9-6.5,1-9.4c1.7-2.5,1.9-5,0.5-7.6c1.4-0.4,3-0.2,3.9-1.7
		c5.1,1.2,7,4.9,8.1,9.6c0.6,2.7-1,4.5-1.7,6.7C88.1,325,82.3,328.3,80.8,331.5z"/>
	<path class="st17" d="M191.6,104.4c3.6,5.1,8.9,7.6,14.8,8.6c2.4,0.4,4.2-1.5,6.1-2.7c1.2-0.8,2.4-1.7,3.6-2.5
		c2.3,0.7,1.3,2.2,0.8,3.5c-3.9,0-3.8,3.8-5.3,5.9c-1.1,1.5-1.7,3.4-2.8,4.9c-7-4.7-14.5-8.5-21.8-12.8
		C189.3,108.5,190,106,191.6,104.4z"/>
	<path class="st18" d="M192.4,77.1c-0.2,0-0.5,0-0.8,0c-1.5-2.8,0-5.2,1.2-7.6c3.6,2.2,6.7,5.4,10.9,6.6c1.2,0.3,3,1.3,1.9,3.3
		c-0.8,1.4-2.1,2.3-4,1.3c-2.7-1.4-5.7-2.1-7.8-4.5C192.4,74.6,192.5,76.1,192.4,77.1z"/>
	<path class="st19" d="M307.3,416.3c4,1.7,7.8,4,11.3,6.5c-0.2,2.6-1.8,3.4-4,2.4c-3.7-1.6-7.1-3.9-10.5-5.9
		c-1.5-0.9-0.8-1.9,0.2-2.6C305.2,416,306.3,416.3,307.3,416.3z"/>
	<path class="st20" d="M307.3,416.3c-0.5,0.7-1.2,0.5-1.8,0.5c-0.7,0.1-1.4,0.4-1.5,1.1c-0.1,0.8,0.6,1.1,1.2,1.4
		c2.6,1.5,5.3,3,7.9,4.6c2.3,1.4,4.2,1.3,5.7-1.2c0.8,0.4,1.5,0.8,2.3,1.2c-1.6,2.7-3.9,3-6.4,1.8c-4-2.1-8-4.4-11.8-6.8
		c-2.3-1.5-2-2.5,1.5-4.4C305.2,415.2,306.2,415.7,307.3,416.3z"/>
	<path class="st21" d="M274.3,399.3c0.3-1.3-1.4-1.6-1.3-2.8c3.4,1.1,6.2,3.1,9,5.2c-2.2-0.4-1.9,2-3,2.7
		C278.3,402,275.8,401.1,274.3,399.3z"/>
	<path class="st22" d="M358.9,447.7c-2.7,1.5-5.4,3-8.2,4.4c-0.7,0.4-1.8,1.8-2-0.4c3.3-1.9,6.7-3.8,10-5.6
		C359.3,446.6,359.1,447.2,358.9,447.7z"/>
	<path class="st23" d="M255.9,399.4l-0.3-0.1h-0.3c0.3-2.4,2.7-2.4,4.1-3.4c1.7-1.2,3.7-2.1,5.5-3.1c1.6,0.5,0.8,0.9,0,1.3
		C261.9,395.8,258.9,397.6,255.9,399.4z"/>
	<path class="st0" d="M187,325.5c-2.7-3.1-6.6-4.3-9.9-6.5c-6.3-4.1-12.9-7.5-19.4-11.2c5.6-2.4,11.3-4.5,16.6-7.7
		c6.5-3.8,9.3-8.7,7.3-16c-0.3-1.2-0.6-2.4-0.9-3.6c-0.5-1.7,0.8-1.9,1.9-2.1c1.3-0.2,2.7-0.1,4.1,0.1c7.8,1.5,13.7-1.7,18.7-7.3
		c5.7-6.5,9.4-14.1,12.8-22c1.2-2.9,2.2-6,3.7-8.8c0.6-1.2,1-2.9,2.6-2.8c1.6,0.1,1.8,1.9,2.1,3.2c1.1,4.2,2,8.4,2.9,12.6
		c2.2,9.7,4.4,19.5,6.8,29.2c0.4,1.6,1.3,2.8,2.3,4.1c0.3,2,0,4-0.2,6.1c-1.3,3.8-2.8,7.4-2.6,11.5c0.2,4.2,1.7,6,5.8,6.5
		c4,0.6,7.9,0.1,11.7-1.4c7-2.9,13.8-6.2,20.7-9.6c2.2-1.1,4.3-2.5,5.9-4.5c1-1.3,2.1-2.6,1.1-4.3c-0.9-1.5-2.5-1.5-4-1.2
		c-3.8,0.7-7.7,0.4-11.5,0.5c-3,0.1-5.9-0.3-8.7-1.1c-2.9-1.8-3.6-4.7-4.2-7.7c0.9-5.5-0.5-10.8-1.2-16.2c-1.1-8-2.3-15.9-3.6-23.9
		c-0.2-1.1-0.5-2.2,0.1-3.3c4.5-1.2,9-1.8,13.6-2.1c4.4-0.3,8.7-1.2,13-2.2c3.5-0.8,7.2-0.9,10.6-2.2c1.5-0.3,3-0.1,4.2,0.8
		c5.4,4.3,12,5.3,18.5,6.6c0.6,0.1,1.1,0.3,1.6,0.5c0.6,0.3,1.2,0.7,1.6,1.3c0.6,0.8,0.5,1.9,1.2,2.6c7.3,4.7,15.1,8.8,22.6,13.3
		c1.4,0.8,3.6,1.2,3.2,3.7c-0.7,0.6-1.6,0.9-2.5,0.9c-5,0.4-9.4,2.5-13.6,5.1c-9.6,5.9-19.5,11.1-29.2,16.9c-5.3,3.2-6.1,5.3-5,11.3
		c0.6,3,1.7,5.9,1.7,9c-0.3,1.5-1.5,2.2-2.7,2.8c-1.6,0.9-3.1,1.9-4.6,2.9c-1.6,1.1-3,2.2-1.9,4.4c1.1,2,2.7,3,5,2.5
		c1.1-0.2,2.1-0.9,3.1-1.3c1.1-0.5,2.2-1.2,3.5-0.3c2.1,4.4,2.1,9.3,3.5,13.8c0.7,2.2,1.2,4.4,1.4,6.6c0.4,4.4,2.7,7.2,6.5,9.2
		c8.8,4.8,17.2,10.2,26.1,14.9c6.4,3.4,13.1,3.3,19.3-0.1c8.8-4.7,17.4-9.9,26.1-14.9c3.5-2,5.4-4.7,6.2-8.7
		c2.7-13.1,5.8-26.2,8.8-39.3c0.6-1.8,0.5-3.9,1.7-5.5c1.3-1,2.4-0.1,3.4,0.5c12.6,7.4,25.3,14.7,38.1,22
		c15.9,9,31.6,18.3,47.5,27.4c7.4,4.2,14.9,8.2,22.1,12.9c2.1,1.4,3.8,1.5,6.2,0.1c22-12.8,44-25.5,66-38.2
		c18.6-10.7,37.2-21.5,55.8-32.2c19.6-11.3,39.1-22.6,58.7-33.9c1.5-0.9,2.9-2.2,5-1.6c1.8,1.7,3.5,2.2,5.9,0.9
		c4.6-2.7,5.6-2,5.7,3.3c-5.1,4.2-11.1,6.9-16.8,10.2c-18,10.5-36,20.9-54,31.3c-11,6.3-22.1,12.5-33,18.8
		c-15.9,9.2-31.8,18.5-47.7,27.8c-7.6,4.4-15.2,8.5-22.8,12.9c-12.1,7-24.2,14.1-36.3,21.1c-10.8,6.2-21.6,12.4-32.3,18.6
		c-12.6,7.3-25.2,14.7-37.9,22c-11.8,6.8-23.6,13.5-35.4,20.2c-1.8,1-3.4,2.1-5.2,3.2c-2.3,0.1-3.6-1.7-5.3-2.7
		c-15.7-8.9-31.4-17.9-46.9-27.1c-13.8-8.2-27.8-16-41.8-24c-13.1-7.5-26.3-15-39.3-22.7c-2.9-1.7-5.8-3.8-9.3-4.6l0,0
		c-3.3-1.7-6.4-3.7-9.6-5.5c-9.7-5.6-19.4-11.3-29.2-16.9C197.5,331.4,192.3,328.5,187,325.5z"/>
	<path class="st1" d="M437.3,90.9c6.8,3.8,13.6,7.5,20.3,11.4c14.8,8.5,29.6,17.1,44.4,25.6c11.7,6.8,23.4,13.5,35.2,20.3
		c9.9,5.7,19.8,11.2,29.6,17.2c8.3,5.1,17,9.6,25.4,14.5c8.6,5.1,17.4,9.7,25.8,15c5.4,3.4,11.5,5.7,16.3,10
		c-5.3,4.2-11.4,7-17.1,10.4c-11.1,6.5-22.3,12.8-33.3,19.3c-3.4,2-7,3.8-10.3,5.9c-1.8,1.2-3.6,1.2-5.4,0.1
		c-11.9-7-24.1-13.8-36-20.7c-7-4-13.8-8.3-20.9-12.1c-0.5-0.3-1-0.5-1.5-0.8c-1.1-0.8-2.7-1.2-2.6-2.8c0.1-1.4,1.5-1.9,2.6-2.5
		c5.7-3.1,11.3-6.4,16.8-9.6c13.1-7.7,26.3-15.2,39.5-22.9c-19.2,10.8-38.1,22-57.2,32.9c-2.7,1.6-4.9,1.5-7.6,0
		c-18.8-11.1-37.8-21.8-56.6-32.8c-3.6-2.1-3.6-3.7-0.1-5.7c15.2-8.7,30.3-17.4,45.4-26.2c3.6-2.1,7.4-4,10.2-6
		c-14.8,8.5-30.1,17.5-45.6,26.3c-3.8,2.2-7.7,4.3-11.4,6.8c-2.2,1.4-4.1,1.6-6.3,0.3c-8.5-4.6-16.7-9.6-25.1-14.4
		c-9.1-5.2-18.1-10.5-27.2-15.6c-2.3-1.3-4.5-2.7-6.7-4.1c-2.5-1.5-2.4-2.5,0.1-4.2c6.3-4.2,13.1-7.7,19.7-11.6
		c12.4-7.2,24.8-14.3,37.2-21.3C435.9,92.9,436.5,91.9,437.3,90.9z"/>
	<path class="st1" d="M634.5,205.4c3.5,0.2,6.1,2.6,8.9,4.2c15.4,8.8,30.8,17.6,46.1,26.6c3.5,2.1,7.2,3.9,10.6,6.1
		c0.2,0.3,0.2,0.6,0,0.9c-15,8.3-29.6,17.1-44.6,25.5c-5.4,3-10.9,6.1-16.1,9.5c-2.2,1.4-4,1.4-6.3,0.1
		c-19.3-11.4-38.8-22.2-58.1-33.6c-1.1-0.6-2.4-1.1-2.3-2.6c0.1-1.3,1.1-1.9,2.1-2.5c14.2-7.9,28.1-16.2,42.2-24.3
		C622.9,212,628.6,208.6,634.5,205.4z"/>
	<path class="st1" d="M245,128.9c2.7-2.4,6-3.9,9.1-5.7c14.3-8.3,28.6-16.5,42.9-24.7c4.5-2.6,9-5,13.5-7.5
		c2.8,3.3,6.9,4.7,10.5,6.8c16.4,9.7,33.1,19,49.4,28.8c2.9,1.7,2.9,2.2-0.1,4c-18.4,10.8-37.1,21.1-55.4,32.1
		c-5,3-8.4,2.7-13.1-0.1c-18.4-11.1-37.2-21.7-55.8-32.4C245.6,129.8,245.2,129.4,245,128.9z"/>
	<path class="st1" d="M311.1,90.8c8.4-6.1,17.8-10.6,26.7-16c10.3-6.2,20.8-12,31.1-18c3-1.8,5.5-2.6,9-0.5
		c18.5,10.9,37.2,21.5,55.8,32.2c1,0.6,2.3,1,2.9,2.3c0.3,2-1.4,2.3-2.6,3c-16.3,9.4-32.6,18.8-48.9,28.2c-3.1,1.8-6,3.6-9.1,5.3
		c-1.4,0.8-2.6,0.8-4.1,0c-9.7-5.4-19.2-11.1-28.9-16.6c-9.9-5.7-19.8-11.5-29.7-17.2C312.4,92.8,310.9,92.5,311.1,90.8z"/>
	<path class="st1" d="M282.6,170.5c3.9-1,7.1-3.3,10.4-5.4c2.9-1.9,5.5-2.4,8.7-0.5c2.5,1.6,4.8,3.9,8.1,3.9
		c13.8,8.7,28.3,16.1,42.2,24.7c3,1.8,6.5,2.8,9.2,5.1c0.7,2-0.9,2.6-2.1,3.3c-13.2,7.3-26,15.1-39.2,22.5c-1.2,0.7-2.2,1.7-3.4,2.2
		c-3.6,0.6-6.6-1-9.4-2.9c-1.3-2.1-0.2-3.6,1.5-4.8c1.1-0.7,2.4-1.2,3.2-2.3c0.2-0.3,0.4-0.5,0.6-0.8c0.5-2.4-1.1-2.9-2.7-2.5
		c-4.5,1.2-9.3,1.4-13.6,3.6c-0.5,0.2-1,0.4-1.5,0.4c-2.9,1.3-5.7,1.3-8.8,0.2c-2.3-0.8-4.9-0.2-7.4-0.2c-4.9,0.7-9.5-1.2-14.2-1.6
		c-1.6-1.1-3.4-1.2-5.3-1.4c-0.3-0.1-0.6-0.2-0.9-0.4c-0.5-0.4-1-0.8-1.6-1.1c-3.5-1.8-6.9-3.6-10.3-5.6c-2.1-3.9-3.8-7.9-3.9-12.4
		c0.3-1.5,1.6-2.1,2.8-2.8c5.7-3.6,11.6-7.1,17.7-10c0.7-0.4,1.3-0.9,1.8-1.5c0.2-0.2,0.4-0.4,0.7-0.7
		C271.3,177.5,276.4,173,282.6,170.5z"/>
	<path class="st24" d="M242.7,194.5c0.6,4.4,1.9,8.5,4.3,12.3c1.2,2.7,4.4,3,6.2,5.1c1.3,1.5,3.4,0.4,4.8,1.7l0,0
		c1.6,1.5,3.9,0,5.5,1.3c5-0.3,9.7,2.2,14.8,1.6c3.7,1,7.8,0.3,11.3,2.5c1.9,5.8,0.8,9.2-4.3,13.1c-6.6,2.7-13.6,3.1-20.5,4.4
		c-5.5,1.1-11.2,1.1-16.8,1.7c-4.5,1.8-10.8,0.2-14.5-3.8c-2.9-3.1-4.8-6.9-6.8-10.5c-4.4-8.1-8.6-16.2-12.1-24.7
		c-3.1-1.9-8.9-0.3-10.5,2.8c-0.7,1.3-1,2.8-2.2,3.7c-1.1,0.2-1.6-0.4-1.9-1.3c1-4,1.6-8.3,5.3-11.1c4.9-1.3,6.2-4.8,4.4-9.6
		c-1.9-4.9-3.6-10-3.4-15.4c0.3-7.2,3.2-13,9.9-16.5c1.6-0.9,3.2-1,4.8-1.1c1.7,0.3,3.8-0.7,4.9,0.6c1.8,2.3,3.6,4.9,4.5,7.7
		c0.8,2.4,2.2,4.6,2.8,7c1.5,0.9,0.2,2.9,1.5,3.9c0.5,2.6,3,3.9,6.1,2.4c2.1-1,4.1-0.9,6.2-1.1c1.8-0.6,3.7-1,5.5,0l0,0
		c1.5,2,3.8,3.2,4.4,6.1c0.5,2.1,2.7,1.3,4.3,1.1c1.8-0.2,4-0.8,3.6,2.4l0,0c-1.1,0.8-2.3,0.9-3.5,0.9c-2.6-0.2-4.8,0.7-6.9,2.1
		c-1.9,1.8-4.3,2.4-6.7,3.1C242,188.5,242,188.5,242.7,194.5z"/>
	<path class="st25" d="M311.1,90.8c6.9,5.2,14.7,8.9,22.1,13.3c12.9,7.7,25.9,14.9,38.9,22.4c1.2,0.7,2,0.9,3.3,0.1
		c16.7-9.7,33.4-19.3,50.1-28.9c3.8-2.2,7.9-3.8,11.1-7c0.2,0,0.4,0.1,0.6,0.2c0.4,1.8-0.7,2.5-2.1,3.3
		c-19.6,11.2-39.1,22.5-58.6,33.8c-0.1,0.1-0.1,0.2-0.5,0.7c5.2,3.1,10.4,6.1,15.6,9.1c15,8.7,30.1,17.3,45.1,26
		c2.2,1.2,3.7,1.1,5.9-0.2c17-10,34.1-19.8,51.3-29.6c2.8-1.6,5.3-3.8,8.6-4.9c0.8,1.9-0.9,2.3-1.8,2.8
		c-15.2,8.8-30.4,17.6-45.7,26.3c-3.5,2-7.1,4-10.6,6.1c-2.8,1.6-2.8,2.2-0.2,3.8c7.5,4.4,15.1,8.8,22.7,13.1
		c11.3,6.5,22.6,12.9,33.8,19.6c3,1.8,5.2,1.9,8.2,0.1c18.8-11,37.6-21.8,56.5-32.7c0.8-0.4,1.9-1.8,2.6-0.6
		c0.8,1.4-1.1,1.7-1.9,2.2c-18.8,10.9-37.7,21.7-56.6,32.6c-0.8,0.4-1.5,1-2.5,1.7c2.7,2.3,5.9,3.5,8.8,5.2
		c17.6,10.2,35.1,20.3,52.6,30.6c1.6,0.9,2.9,0.8,4.4-0.1c19.3-11.2,38.6-22.4,57.9-33.7c1.1-0.6,2.1-1.4,3.4-1.4
		c0.1,0.2,0.1,0.3,0.1,0.5c-2.5,3.4-6.6,4.7-10.1,6.7c-16.4,9.6-33,19-49.5,28.4c-0.7,0.4-1.5,0.8-1.6,1.6c0,1,0.9,1.1,1.6,1.5
		c19.4,11.2,38.8,22.4,58.2,33.7c2.1,1.2,3.7,1.5,6.1,0.1c12.6-7.6,25.4-14.8,38.2-22.2c6.6-3.8,13.2-7.5,19.7-11.3
		c0.9-0.5,1.7-1.2,2.8-0.9c1,1.4,0,2.2-1,2.5s-1.9,1.1-3,1c-0.7,0.4-1.3,0.8-2,1.2c-12,6.8-24.1,13.7-36.1,20.6
		c-29.2,16.8-58.4,33.5-87.6,50.4c-20.6,11.9-41.2,23.9-61.8,36c-2.2,1.3-3.7,1.3-5.8,0c-36.4-21.1-72.9-42.2-109.3-63.3
		c-0.5-0.3-1.1-0.3-1.6-0.5c-0.6-0.5-0.7-1.2-0.5-1.9c1.1-1.3,2.1-0.4,3,0.2c10.3,6,20.7,11.9,31,17.9c3.9,2.3,8.1,4.2,11.8,6.9
		c1.7,1.2,3.4,1.3,5.4,0.2c12.4-7.2,24.8-14.3,37.2-21.5c5.7-3.3,11.4-6.6,17.1-9.9c1.6-0.9,3.4-1.7,5-3.4
		c-6.1-3.4-11.8-6.8-17.6-10.1c-13.8-8-27.9-15.8-41.5-24.2c-1.6-1-3.1-1.1-4.8-0.1c-10.3,5.9-20.7,11.9-31,17.9
		c-7.4,4.2-14.8,8.5-22.2,12.7c-1.9,1.1-3.6,2.4-5.3,3.7c-1.7,0.1-2.9-0.6-3.5-2.2c5.8-3.8,11.9-7,17.9-10.5
		c10.5-6.2,21-12.2,31.5-18.3c2.7-1.5,5.4-2.9,8-4.5c2.9-1.8,2.9-2.3-0.1-4c-6.7-3.6-13.2-7.6-19.8-11.3
		c-12-6.7-23.8-13.7-35.7-20.7c-1.6-1-3.2-1.6-5.1-1.6c-1.3-2.1-3.4-3.2-5.6-4c-1.9-0.7-3.6-1.8-5.1-3.1c-0.2-0.2-0.4-0.5-0.6-0.8
		c-4.8-3.4-10.1-6-15.2-8.9c-10.7-6.1-21.4-12.2-32.1-18.3c-1.7-1-3.2-2.2-4.2-3.8c-7.4-3.4-14.2-7.9-21.3-11.9
		c-14-7.9-27.9-16.1-41.8-24.2c-0.8-0.4-3.1-0.2-1.6-2.3c7.1,3.3,13.7,7.6,20.4,11.5c13.8,7.9,27.5,15.9,41.2,23.9
		c1.1,0.6,2,1.1,3.4,0.3c20.6-12,41.3-23.9,62.3-36c-17.2-10-34.2-19.8-51.2-29.6c-3.1-1.8-6.1-3.6-9.2-5.2
		c-1.2-0.6-1.7-1.4-1.4-2.7C310.7,90.9,310.9,90.8,311.1,90.8z"/>
	<path class="st26" d="M264.8,180.9c-0.3-1.7-1.1-2.2-2.8-1.8c-4.8,1.1-4.8,1-6.3-3.5c-0.2-0.7-0.6-1.5-1.6-1.6
		c-1.9-0.2-1.6-1.6-1.6-2.8c8.9-2.1,17.9-1.3,26.9-1.4c1.1,0,2.3-0.1,3.2,0.7c-1.6,2.2-4.2,3.3-6.5,4.6
		C272.4,177.1,269,179.8,264.8,180.9z"/>
	<path class="st27" d="M217,111.3c-0.7-1.1,0.5-2.6-0.8-3.5c4.2-3.5,8.3-7,12.5-10.4c0.8-0.7,1.9-1.7,3-0.8c0.9,0.7,0.4,1.9,0.1,2.9
		c-0.2,0.5-0.4,1.1-0.6,1.6c-0.2,0.6-0.7,1.4,0.1,1.8c1,0.5,1.3-0.4,1.7-1.1c1.5-2.4,2.6-5.1,5.6-6.1c0.1,3.7-2,6.6-4.1,9.3
		c-3.5,4.6-7.4,8.9-14.2,7.7C219.1,112.4,217.9,112.3,217,111.3z"/>
	<path class="st28" d="M309.7,167.3c7.5,5.3,15.5,9.9,23.6,14.1c8.3,4.4,16,9.9,24.6,13.7c1.6,0.7,3.3,1.6,3.8,3.5
		c-0.2,0.2-0.5,0.3-0.7,0.1c-2.8-1.4-5.6-2.6-8.3-4.1c-12-6.9-24.1-13.9-36-20.9c-2.4-1.4-5.6-1.9-6.8-5
		C309.7,168.2,309.7,167.7,309.7,167.3z"/>
	<path class="st0" d="M696,246.5c1-1.5,3.9-0.9,4-3.5c0-0.2,0.1-0.5,0.1-0.7c0.9,0.8,1.6,2.3,1.2,3.2C701,246.3,697,247.1,696,246.5
		z"/>
	<path class="st26" d="M252.5,171.3c-1.8,0-3.7,0-5.5,0C248.8,169.9,250.7,169,252.5,171.3z"/>
	<path class="st29" d="M234.7,169.9c-2.3-0.6-1.1-2.6-1.5-3.9C235.9,166.5,234.3,168.6,234.7,169.9z"/>
	<path class="st24" d="M149.7,254.5c-6.4-2.9-12.1-6.9-17.9-10.8c-0.8-0.9-1.5-1.9-2.4-2.9c-1.9-2.1-2.7-4.3-1.8-7.4
		c1.1-3.9,1.8-8,3.3-11.8c1.5-1.5,0.1-3.8,1.5-5.3c1.3-3.7,2.7-7.4,4-11c1.7-1.5,0-3.9,1.4-5.4l0,0c1.4-1.6,0.2-3.8,1.4-5.4
		c1.1-3.6,2.1-7.2,3.2-10.8c1.6-5.2,3.4-10.4,4.9-15.6c0.3-1.1,0.2-2.3,1.7-2.5c6.1,7.7,13.9,13.2,22.9,17.1
		c7.2,3.2,14.4,6,22.1,7.8c1.5,0.4,3.6,0.2,3.9,2.5c0.7,2.3-0.9,4.1-1.6,6c-3.5,9.9-6.3,19.8-5.7,30.5c0.2,4.6,1.1,9,2.2,13.4
		c0.6,2.2,1,4.4-0.7,6.4c-10.8,8.8-23.1,10.7-36.4,7.8C153.6,256.7,150.8,257.4,149.7,254.5z"/>
	<path class="st30" d="M137.8,199.9c-0.6,1.8,1.4,4.2-1.4,5.4C136.9,203.5,135.2,201.2,137.8,199.9z"/>
	<path class="st30" d="M139.3,194.5c-0.5,1.8,1.3,4.2-1.4,5.4C137.9,198,137.5,196,139.3,194.5z"/>
	<path class="st31" d="M132.4,216.3c-0.2,1.9,0.6,4-1.5,5.3C131.6,219.9,129.8,217.5,132.4,216.3z"/>
	<path class="st6" d="M232,351.4c3.6,1.1,6.7,3.1,9.6,5.5C237.6,356.3,234.7,354.1,232,351.4z"/>
	<path class="st32" d="M155.7,142.9c-0.3-2.9,1-5.5,1.3-8.3c0.2-2.3,1.5-1.4,2.5-0.4c6.8,6.9,15.2,11.3,23.7,15.6
		c4,2,8.2,3.6,12.3,5.4c1.6,0.7,3.1,1.5,2.4,3.7c-1.1,3.4-2.2,6.8-4.2,9.8c-1.2,0.7-2.2-0.2-3.2-0.7c-10.6-5.2-20.6-11.4-29.8-18.8
		C158.6,147.5,156.6,145.6,155.7,142.9z"/>
	<path class="st33" d="M191.6,249c1.3-1.3,1.2-2.9,0.7-4.5c-5.1-16.1-2.4-31.6,3.7-46.8c0.6-1.6,1.4-3.1,2-4.6
		c2.5-1.8,4.9-2.1,7.3,0.2c-2,3.4-3.5,6.9-4.6,10.7c-0.3,2.5-0.7,5-1.5,7.4c-1.8,8.4-2.4,16.8-0.9,25.3c0.3,1.4,0.6,2.9,1.3,4.2
		c0.2,1.8-0.5,3.3-1.2,4.8c-0.9,1.8-2.1,1.6-3.5-0.4c1.1-1,0.8-2.4,0.5-3.5c-4.1-15.9-1.3-31,5.3-45.7c0.2-0.4,0.4-0.8,0.2-1.8
		c-3.9,8.5-6.8,16.8-7.4,25.8c-0.5,7.4-0.3,14.7,1.8,21.9c0.3,1,0.5,2-0.1,2.9c-0.9,0.8-0.3,1.9-0.6,2.9
		C194,249.4,193.1,250.1,191.6,249z"/>
	<path class="st34" d="M155.7,142.9c10,10.7,22.4,17.8,35.3,24.4c0.9,0.5,1.8,0.9,2.7,1.4c0.1,1.3,0.7,2.8-0.5,3.7
		c-0.7,0.6-1.8,0.5-2-0.8c0.6-2-1.2-1.8-2.2-2.2c-10.9-5.4-21.4-11.3-30.5-19.4c-1.3-1.1-3.5-1.9-2.9-4.4
		C155.6,144.6,155.6,143.7,155.7,142.9z"/>
	<path class="st35" d="M155.5,145.4c5.1,6.4,11.8,10.7,18.7,14.9c5.6,3.4,11.3,6.6,17.3,9.3c0.8,0.3,2,0.6,1.4,1.8
		c-0.4,0.8-1.2,0.1-1.8,0.1c-12.6-5.9-24.9-12.3-34.9-22.2C153.9,147.1,153.9,146.9,155.5,145.4z"/>
	<path class="st36" d="M191.6,249c1.5,0.3,2.3-0.2,2.2-1.9c-0.1-1,0-2,1.3-2.3l0.2,0.1c0.7,2.2,2.1,1.9,2.4,0.1
		c0.3-1.6,1.2-2.8,1.5-4.3c0.3-8.6-2-17.1-0.7-25.8c0.3-1.6,1-3.1,1.9-4.4c3.3-4.2,7.3-7.8,11.6-11.1c0.8-0.6,1.6-1.2,2.7-1.1
		c2.5,2.9,3.2,6.6,4.9,9.9c3.8,7.4,7.5,14.9,11.8,22.1c3.2,5.3,7.8,7.7,13.8,7.6c0.9,0,1.8,0.1,2.7,0.2c2.2,12.5,4,25.1,5.6,37.7
		c0.3,2.1,0.3,4.1-0.5,6c-0.3,1.8-1.5,3.1-3.1,3.8c-3.8,1.7-7.6,3.6-11.9,1.3c-1.8-0.7-2.3-2.1-2.8-3.9c-3.2-14.2-6.6-28.5-9.9-42.7
		c-0.2-0.8-0.1-1.8-1.1-2.6c-1.6,1.9-2.3,4.3-3.2,6.5c-3.3,8.2-6.8,16.3-11.9,23.6c-5.9,8.4-13.3,13.5-24.2,11.5
		c-1.3-0.2-3.4-1.7-4.2,1c-3.4-2-7-3.5-10.8-4c-5.9-0.8-10.8-3.5-15.2-7.4c-2.1-1.9-4.2-3.8-6.3-5.6c-0.9-0.8-1.7-2.2-0.6-2.9
		c4.2-3.1-0.9-2.5-1.2-4.2c0.4-1.1,1.5-1.8,3.1-1.8c13.6,4.7,26.7,4.6,39-3.7C189.6,250.1,190.3,249.1,191.6,249z"/>
	<path class="st37" d="M344.1,447.8c-1.9-0.4-4.9-0.1-5.4-3.4c-0.3-2.2,2.6-3.9,6.3-3.7c2.5,0.1,5.2,0.3,5.8,3.5
		C351,446.2,348.1,447.8,344.1,447.8z"/>
	<path class="st38" d="M274.3,399.3c2.4,0.9,5.6,1.2,4.6,5.2c-2.9,2.3-6.1,2.8-9.5,1.3c-1.3-0.6-2.5-1.4-2.4-3
		c0.2-1.6,1.4-2.5,2.9-2.9C271.4,399.7,272.8,399.5,274.3,399.3z"/>
	<path class="st1" d="M372.6,206c1.9-1.6,3.2-0.1,4.7,0.8c10,5.8,20,11.6,30,17.4c9.2,5.3,18.4,10.7,27.7,15.9
		c2.6,1.4,2.5,2.3,0,3.8c-18.4,10.6-36.8,21.3-55.2,31.9c-1.2,0.7-2.4,1.4-3.8,1.4c-1.6,0.4-2.9-0.5-4.1-1.2
		c-5.1-3-10.3-5.7-15.3-8.6c-4.5-3.2-9.6-5.1-14.9-6.6c-9.2-5.3-18.3-10.7-27.6-16c-1-0.6-1.8-1.4-3.1-1.1c-0.9-0.8-0.4-1.8-0.5-2.7
		c2.1-0.7,3.8-1.9,5.5-3.2c0.2-0.2,0.5-0.4,0.8-0.6c14.6-7.9,28.7-16.8,43.3-24.6c3.1-1.7,5.8-3.9,9-5.4
		C370.3,206.7,371.3,205.9,372.6,206z"/>
	<path class="st39" d="M390.4,296.3c-2.8,12.7-6,25.4-8.3,38.2c-1.1,5.7-3.8,8.9-8.7,11.5c-8,4.2-15.7,9.1-23.6,13.5
		c-7.1,3.9-14.4,4.1-21.4,0.2c-8.8-4.9-17.5-10.1-26.3-15c-3.4-1.9-5.3-4.4-6-8.4c-1.2-7.2-3.1-14.4-4.7-21.6
		c-0.3-1.2,0.6-1.7,1.3-2.1c4.3-2.5,8.6-4.9,13.2-6.8c5,1.7,9.2,4.9,13.8,7.2c2.2,1.1,4.3,2.5,6.5,3.7c8.6,4.6,17.4,4.7,25.8-0.1
		c11.9-6.9,24.2-13.1,35.5-20.9C389.6,294.2,389.9,294.3,390.4,296.3z"/>
	<path class="st36" d="M256.4,288.1c6.6,1.9,13.2,1.7,19.9,0.7c2-0.3,4.2-1,5.5,1.3c1.4,2.4,0.1,4.4-1.5,6.1
		c-0.8,0.8-1.6,1.7-2.6,2.2c-8.9,5-18,9.7-27.8,12.7c-4.7,1.5-10,2.1-13.7-2c-3.6-4-1.5-8.8-0.2-13.3c0.3-1.1,0.9-2,1.4-3.1
		c1-0.6,2,0,2.9,0.3c4.6,1.7,8.6,0.5,12.1-2.7C253.6,289.4,254.7,288.3,256.4,288.1z"/>
	<path class="st40" d="M285.3,232.1c-0.8-2.5,2-2,2.8-3.5c1.7-3.1,1-6.3,1.2-9.4c1.8-1.1,4-1.3,5.6-2.8c0.4,0,0.8-0.1,1.3-0.1
		c3.1-0.5,6-2.2,9.3-2c1.2,0.1,2.1-0.6,3.1-1c2.3-0.9,3.8,0.3,3.9,3l0,0c-1.5,1.3-3.5,1.9-5.2,2.9c-3.2,1.9-3.2,1.9-0.2,3.9
		c3.1,0.9,5.9,3,9.4,2.6c0.4-0.2,0.9-0.4,1.4-0.4c1.7,0.2,3.3,0.6,4.9,1.2c1.8,0.8,2.4,2.1,0.7,3.6c-0.7,0.7-1.6,0.9-1.2,2.3
		c0.3,1.1-1,1.6-1.9,2c-1.2,0.4-2.4,0.3-3.7,0.3c0.4,1.2,1.1,2.2-0.1,3.2l0,0c-2.3,1.2-5.1,0.8-7.5,1.9c-3.4-0.5-6.7-1.8-10.2-2.1
		c-3.4-0.3-6.2-2.4-9-4.2C288.4,232.8,287,232.1,285.3,232.1z"/>
	<path class="st41" d="M381.3,360.2c-1.8,2.2-4.4,3.2-6.7,4.6c-11.8,6.9-23.6,13.6-35.4,20.5c-1.7,1-3.4,2-5.4,0.8
		c-1.4-0.9-3.5-1.3-3.6-3.6c-0.1-2.4,1.7-3,3.2-3.9c12.4-7.2,24.8-14.3,37.2-21.5c1.2-0.7,2.4-1.2,3.7-1.8
		C377.9,355.5,380.8,357.5,381.3,360.2z"/>
	<path class="st42" d="M390.8,344.7c-4.3-3.2-4.1-8.8,0.5-13.8c2.4-2.5,5-3.6,8.5-2c6.7,3.1,13.3,6.3,19.1,11
		c0.2,1.1-0.6,1.6-1.3,2.1c-4.4,2.7-6.5,6.6-6.5,11.7c0,1,0.2,2.6-1.8,1.8c-3.7-1.1-6.9-3.2-10.3-5.1c-0.5-1.2,0.4-1.6,1.1-2.2
		c1.4-1.1,2-2.6,1-4.1c-1.1-1.6-2.7-1.5-4.3-0.8c-0.9,0.4-1.8,1-2.7,1.5C393,345.4,391.9,345.9,390.8,344.7z"/>
	<path class="st43" d="M390.4,296.3c-0.5-2.2-1.6-0.5-2.1-0.1c-10.8,7.5-22.7,13.1-33.8,20c-11.2,6.9-22,6-32.8-0.9
		c-5.1-3.2-10.6-6-15.9-8.9c0-1.8,1.4-1.8,2.6-2c5.2,1.9,9.7,4.9,14.3,7.7c4.1,2.4,8.2,4.7,13.2,5.1c5.5,0.5,10.8-0.1,15.4-3
		c9.9-6,20.1-11.5,29.9-17.5c2.8-1.7,5.6-3.7,4.8-7.8c-0.6-1.8-1.8-3.2-3.3-4.2c-4.4-2.7-9-5.3-13.5-7.9c-5.4-3.1-10.8-6.1-15.9-9.6
		c-0.7-0.5-1.7-1-0.9-2.1c2-0.6,3.1,1.3,4.8,1.5c6.3,3.5,12.6,6.9,18.9,10.4c1.1,0.6,2.2,1.3,3.3,1.9c4.4,0.9,7.8,3.8,11.2,6.5
		c0.9,0.7,1.8,1.8,1.1,3.2c0,0.7,0.1,1.5,0.1,2.2C391.3,292.7,390.8,294.5,390.4,296.3z"/>
	<path class="st44" d="M308.5,304.9c-1.1,0.2-2,0.6-2.7,1.5c-4.7,3-10.1,4.8-14.5,8.3c-1.9,0-3.3,1.3-4.9,2.1
		c-3,1.4-5.6,0.5-7.1-2.4c-1.6-2.9-0.3-4.5,2.2-6c2.4-1.6,5.4-2.3,7.3-4.7c3-2,6.4-3.4,9.7-5c4.4-3.3,9.1-5.4,14.8-3.6
		c0.7,0.4,1,1,1.3,1.7C314.5,301.2,312.7,303.6,308.5,304.9z"/>
	<path class="st45" d="M298.1,299.5c-3.2,1.3-5.8,3.8-9.5,4.1c-0.7-3.3-1.5-6.6-2.2-10c-1.1-5.5-0.1-7.9,5-10.9
		c8.8-5.1,17.6-10.2,26.4-15.3c4.2-2.4,7.9-5.5,12.8-6.5c2.3-0.4,4.6-0.8,6.8-1.1c1.5-1.1,2.9-0.2,4.4,0c4.6,1.1,9.1,2.6,13.2,5.2
		c0.8,0.5,1.6,0.7,2,1.6c-1.9,0.6-3.1-1.7-4.9-1.3c-0.9,0.9-1.9,0.6-2.8,0.1c-9.9-4.9-18.9-2.4-27.5,3.3
		c-8.8,5.8-18.4,10.2-27.1,16.1c-4.4,3-4.7,6.1-0.8,9.9c1,1,2,1.9,3.2,2.5C297.7,298,298.5,298.4,298.1,299.5z"/>
	<path class="st46" d="M390.8,344.7c2.6,0.8,4-1.5,6-2.4c2.1-0.9,3.7-0.5,5.1,1.1c1.2,1.3,1.1,3,0.4,4.4c-0.6,1.3-2.8,1.1-3.2,2.7
		c-5.2,2.9-10.4,5.9-15.6,8.8c-0.7,0.4-1.4,0.6-2.1,0.9c-1.6-2.8-4.7-3.2-7-5c4.9-2.8,9.8-5.6,14.7-8.4
		C389.8,346.3,391,346.1,390.8,344.7z"/>
	<path class="st47" d="M409.4,355.5c1.7-0.2,1-1.4,0.9-2.3c-0.1-5.2,2.1-9,6.5-11.7c0.8-0.5,1.7-0.7,2.1-1.6c4.3,3.2,4.8,6.8,1.7,12
		C417.5,357.1,414.4,358.1,409.4,355.5z"/>
	<path class="st48" d="M256.4,288.1c-0.8,0.6-1.6,1.2-2.3,1.9c-5.7,5.4-9.6,6-16.6,2.8c0.1-1.9-0.6-4,0.6-5.8
		c5.7,0.2,11.1-0.2,15-5.1C254.1,284,254.5,286.5,256.4,288.1z"/>
	<path class="st49" d="M341.8,260c-1.5,0-2.9,0-4.4,0c-0.5-1.8-2.3-2-3.5-2.8c-7.6-4.6-15.3-9-22.9-13.5c1-2.5,2-0.3,2.7,0.1
		C323.1,249.1,332.5,254.6,341.8,260z"/>
	<path class="st50" d="M309.1,240.1c1.7-3.6,5-1.2,7.5-1.9c-1.9,1.3-3.1,3.9-6.1,2.9C310,240.7,309.6,240.4,309.1,240.1z"/>
	<path class="st51" d="M317.9,226c-0.5-0.1-0.9-0.1-1.4-0.2c4.7-3.8,10.1-6.4,15.2-9.4c9.1-5.4,18.4-10.6,27.6-15.9
		c0.7-0.4,1.7-0.7,1.7-1.9c0.2,0,0.5,0,0.7-0.1l0,0c1.5,2.4-0.1,3.7-1.8,4.6c-9.6,5.4-18.8,11.6-28.7,16.6c-3.1,1.6-5.9,3.8-9.1,5.2
		C320.7,225.5,319.4,226.4,317.9,226z"/>
	<path class="st52" d="M242.7,194.5c-3.1-3.6-1.7-7.2,3.3-8.2c2.8-0.6,5.3-1.5,7.9-2.7c3.1-1.2,6-3.2,9.5-1.4
		c-4.2,2.5-8.4,4.9-12.6,7.4C248,191.2,245.4,192.9,242.7,194.5z"/>
	<path class="st53" d="M312.5,216.3c-0.9-2-1.8-2.6-4.6-1.9c-3.8,0.9-7.7,2.5-11.8,1.9c0.7-2.8,3.7-1.7,5.2-2.2
		c2.6-0.9,5.7-1.4,8.6-1.8c1.5-0.2,2.7,0.5,3.4,1.6C314.1,214.9,314.3,216.1,312.5,216.3z"/>
	<path class="st54" d="M294.8,216.4c-1,2.7-3.2,2.8-5.6,2.8c-3.3-0.2-6.3-1.9-9.6-1.6c-0.8,0.1-1.2-0.4-1.4-1.2
		c3.7,0.1,7.4-0.9,10.9,1.1C291.2,218.8,292.7,215.6,294.8,216.4z"/>
	<path class="st55" d="M307,223.1c-1.6,0.3-3.2-0.3-3.5-1.9c-0.3-1.6,1.2-2,2.6-2.5c2.2-0.7,3.9-2.5,6.3-2.5
		c-0.3,1.6-1.4,2.3-2.8,2.8C307.7,219.8,306.8,221.1,307,223.1z"/>
	<path class="st56" d="M252.5,212.1c-1.8-1.8-5.5-1.6-5.5-5.3c3.3,2,6.6,4,10.2,5.5C255.8,213.5,255.2,213.5,252.5,212.1z"/>
	<path class="st26" d="M263.3,182.3c-3.3-0.6-6.2,1.4-9.5,1.4c1.4-2.1,3.4-2.9,5.9-2.8c1.7,0,3.4,0,5.1,0.1
		C264.9,181.9,264.1,182.1,263.3,182.3z"/>
	<path class="st57" d="M263.5,214.9c-1.9-0.4-4.2,1.4-5.5-1.3C259.8,213.9,262.1,212.5,263.5,214.9z"/>
	<path class="st57" d="M252.5,212.1c1.6-0.4,3.1,1.4,4.7,0.2c0.6,0.2,0.8,0.7,0.8,1.3C256.1,213.1,253.6,215,252.5,212.1z"/>
	<path class="st58" d="M214.8,198.5c-5,3.6-9.3,8-13.6,12.4c-2.4-2.2,0.4-3.7,0.7-5.5c1.8-5.6,5.9-8.6,11.7-8.2
		C214.2,197.2,215.7,196.7,214.8,198.5z"/>
	<path class="st59" d="M201.8,205.3c1.3,2-1.9,3.5-0.7,5.5c-0.6,1.1-1.2,2.3-1.8,3.4c-1.2-1-0.6-2.4-0.8-3.6
		c0.4-2.3,0.9-4.6,2.1-6.7C200.8,204.7,200.9,205.4,201.8,205.3z"/>
	<path class="st1" d="M568.8,317.9c-7.1,4.1-14.2,8.3-21.4,12.4c-13.2,7.6-26.5,15.2-39.8,22.9c-1.6,1-2.8,0.9-4.4,0
		c-19.4-11.3-38.8-22.6-58.2-33.9c-0.9-0.5-1.7-1.1-3-2c5.6-3.3,10.9-6.5,16.3-9.6c15.2-8.9,30.6-17.2,45.6-26.5
		c0.7-0.5,1.5-1,2.5-0.5c20.7,12.1,41.5,24.3,62.2,36.4C568.6,317.4,568.6,317.5,568.8,317.9z"/>
	<path class="st1" d="M633.7,280.2c-0.9,0.7-1.8,1.5-2.9,2.1c-8.2,4.7-16.4,9.3-24.5,14c-10.9,6.3-21.8,12.5-32.7,18.9
		c-1.8,1-3.1,1.3-4.9,0.2c-16.7-9.7-33.4-19.4-50.1-29c-3.1-1.8-6.3-3.6-9.4-5.4c-1.6-0.9-1.6-1.5,0.1-2.5
		c14.4-8.3,28.9-16.6,43.3-25c5-2.9,10-5.8,15-8.8c2.2-1.3,3.7-1.7,6.3-0.1c15.8,9.4,31.8,18.4,47.8,27.5c3.5,2,7.1,4.1,10.6,6.2
		C632.7,278.8,633.6,279,633.7,280.2z"/>
	<path class="st1" d="M502.6,204.2c-0.2,0.9-0.9,1-1.5,1.4c-19.9,11.5-39.9,23-59.8,34.5c-1.6,0.9-2.6,0.4-3.7-0.3
		c-19.5-11.3-39-22.6-58.6-33.9c-0.8-0.4-2-0.7-2.1-1.6c-0.1-1.2,1.3-1.5,2.1-2c18.9-11,37.8-21.9,56.7-32.9c2.6-1.5,4.4-2,7.5-0.2
		c19,11.4,38.2,22.3,57.3,33.3C501.4,203,502.2,203.4,502.6,204.2z"/>
	<path class="st1" d="M373.5,129.7c1.1-0.1,1.6,0.3,2.2,0.6c12.5,7.3,25.1,14.6,37.6,21.9c7.2,4.2,14.5,8.3,21.8,12.5
		c0.8,0.4,1.9,0.6,1.9,1.7c0,1.1-1.2,1.2-2,1.6c-18.7,10.9-37.5,21.6-56.2,32.6c-3.3,1.9-5.8,2.2-9.3,0.1
		c-18.9-11.2-38-22.1-57.1-33.1c-1.9-1.1-2.1-1.6,0-2.7c19.9-11.4,39.9-23,59.8-34.5C372.8,130.1,373.3,129.8,373.5,129.7z"/>
	<path class="st1" d="M568.9,242.1c-9,5.2-17.7,10.3-26.4,15.3c-11.5,6.6-23.1,13.1-34.4,19.9c-2.2,1.3-3.7,1.1-5.6,0
		c-12.7-7.3-25.3-14.6-38-21.9c-6.6-3.8-13.1-7.6-19.7-11.4c-0.9-0.5-2.2-0.9-2.2-1.9c0-1.1,1.3-1.4,2.1-1.9
		c19.5-11.2,39.1-22.5,58.6-33.8c1.3-0.7,2.3-1,3.8-0.2c20,11.6,40,23.2,60,34.8C567.6,241.2,568.1,241.6,568.9,242.1z"/>
	<path class="st1" d="M391.6,288.7c-1.6-4.5-6.2-5.4-9.5-8c-0.9-0.7-2.1-0.7-2.8-1.7c0.1-1.7,1.6-2.1,2.7-2.8
		c10.6-6.1,21.2-12.2,31.8-18.3c7.7-4.5,15.5-8.9,23.2-13.5c2.2-1.3,3.9-1.3,6.2,0c14.4,8.5,29,16.8,43.5,25.2
		c5.5,3.2,10.9,6.4,16.7,9.8c-2.9,2.8-6.6,4.3-9.9,6.2c-16.8,9.8-33.7,19.3-50.4,29.1c-2.3,1.4-3.9,1.4-6.1,0.1
		c-11.8-7-23.7-13.9-35.5-20.8C398.1,292.3,394.9,290.5,391.6,288.7z"/>
	<path class="st60" d="M317.9,226c5.2-2.3,9.9-5.5,14.9-8.2c2.8-1.5,5.6-3.1,8.6-4.4c3.3-1.4,6.1-4,9.3-5.8c3-1.7,5.6-4,8.9-5.2
		c1.6-0.6,2.4-2,2.1-3.9c3,1.5,6.1,2.9,9.1,4.5c1,0.6,2.1,1.4,1.9,2.9c-7,4.1-13.9,8.2-20.9,12.3c-9.6,5.7-19.2,11.4-28.9,16.9
		c-2,1.1-4.2,2-6.3,2.9c0.4-1.9-0.4-3-3-2.9c0.2-0.3,0.5-0.6,0.7-0.9c1.7-0.1,3.5-0.1,5.2-0.3c2.1-0.3,3.5-1.1,0.8-3.1
		c0.9-0.4,1.7-0.6,2.4-1c0.6-0.3,1.2-0.7,1.1-1.5s-0.8-1-1.5-1.2C320.9,226.9,319.4,226.4,317.9,226z"/>
	<path class="st61" d="M195.1,244.9c-5.4-17.5-2.8-34.3,4.7-50.6c0.5-1.1,1.1-2.3,2.5-1.6c1.6,0.8,0.1,1.7-0.2,2.5
		c-3.6,8.5-6.7,17.1-7.3,26.4c-0.4,6.3-0.2,12.5,1.3,18.6c0.4,1.7,1.3,3.6-0.8,4.9C195.3,245,195.1,244.9,195.1,244.9z"/>
	<path class="st62" d="M198.6,210.7c0.9,1.1,0.6,2.4,0.8,3.6c-0.1,7.2-0.6,14.4,1.2,21.5c0.5,2-1,3.4-1.4,5.1
		c-1.7-0.1-1.4-1.7-1.6-2.6C195.6,229,196,219.8,198.6,210.7z"/>
	<path class="st63" d="M349.1,444.3c-3,0.8-6.1,0.8-9.2,0C343,443.3,346.1,443.4,349.1,444.3z"/>
	<path class="st21" d="M276.9,401.6c-0.2,0.3-0.5,0.7-0.8,0.9c-1.5,0.9-3.1,1.8-4.7,2.6c-0.6,0.3-1.4,0.4-1.8-0.3
		c-0.6-1,0.4-1.1,0.9-1.4c1.4-0.9,2.9-1.8,4.4-2.5C275.6,400.5,276.3,400.6,276.9,401.6z"/>
	<path class="st64" d="M298.1,299.5c-0.2-0.6-0.7-1.1-1.3-1.3c-0.1-0.2-0.2-0.5-0.1-0.6c3.9-3.8,6.3-8.8,10-12.8
		c4-4.4,9.8-5.1,15.3-5.7c5.4-0.6,10.7-2,15.8-3.8c2.5-0.9,5-1.5,7.5-2c3.2-0.7,6.1,0,8.7,1.8c2.5,1.8,5.2,3.3,8,4.4
		c3.4,1.3,6.5,3,9.2,5.6c2.5,2.4,5.9,2.7,9.2,2.8c2.1,0.1,4.3-0.5,6.2,1c0.8,3.6-0.2,5.8-4.2,8.2c-8.9,5.3-18.1,10.2-26.9,15.8
		c-10.9,7-21.6,7.7-32.7,0.7c-4.8-3-9.8-5.7-14.6-8.5c2.7-2.1,5.4-4.2,5.5-8c1.3-2,3-3.3,5.6-2.9c5.3,7,12.3,10,21,9
		c1.8-0.2,3.3-0.9,4.6-2c4.3-3.6,8.9-7,11.9-12c1.1-1.8,2.2-3.6,0.9-5.6c-1.3-2-3.4-2.1-5.5-1.9c-6.6,0.5-13,2.1-19.2,4.2
		c-3.2,1.1-6.4,2.2-9.5,3.7c-0.9,0.4-1.9,0.9-1.7,2.2c-3.2,0.9-5.6,3.6-9.1,3.9c-4.8-0.1-9.7-0.4-13.3,3.8
		C299.5,299.6,298.7,299.4,298.1,299.5z"/>
	<path class="st65" d="M386.8,288.7c-2.4,0-4.8,0-7.2-0.1c-4-0.1-7.7-1-10.3-4.3c-2.4-3-6.2-3.1-9.2-4.9c-1.5-0.9-3.5-1.3-4.8-2.5
		c-4.9-4.7-10.3-3.4-15.6-1.5c-6.9,2.5-13.9,4.1-21.1,5c-6.4,0.8-11.7,3.3-14.7,9.4c-1.7,3.4-4.4,5.9-7.3,8.3
		c-4.8-2.2-6.7-5.5-6.3-10.1c0.1-1.7,1.2-2,2.1-2.7c4.8-3.8,10.4-6.3,15.6-9.5c6-3.6,12.1-7,18.1-10.5c7.4-4.3,14.9-4.4,22.6-0.9
		c1,0.5,2,1,3.2,0.9c3.3,3.1,7.6,4.7,11.4,7c6.3,3.8,12.7,7.5,19,11.2C384.5,284.9,386.1,286.5,386.8,288.7z"/>
	<path class="st66" d="M319.2,294c-1.8,1-3.5,2-5.3,3c-0.3-0.5-0.6-1-0.9-1.5c2.9-1.6,5.4-4.1,9-4.1c3.5,0.9,3.9,4.2,5.2,6.8
		c0.2,0.5,0,1.1-0.5,1.5c-0.7,0.5-1.3,0.2-1.9-0.2c-1.2-0.8-1.8-2-2.5-3.2C321.7,295,320.5,294.4,319.2,294z"/>
	<path class="st67" d="M319.2,294c1.4-1.3,2.4-0.7,3.2,0.7c0.9,1.4,1.7,2.9,2.6,4.3c0.3,0.5,0.9,0.9,1.4,0.5c0.6-0.4,0.4-1,0.1-1.5
		c-1.4-2.2-2.4-4.9-4.5-6.6c0.2-0.6-2.9-0.3-0.2-1.8c8.2-4.4,16.9-6.9,25.9-8.4c2.3-0.4,4.6-1,7.1-0.7c4.4,0.6,6.1,4.1,3.8,7.9
		c-3.2,5.3-7.8,9.4-12.6,13c-5.9,4.5-12.4,3.2-18.5,0.3C324.1,300.1,320.2,298.5,319.2,294z"/>
</g>
</svg>
